<?xml version="1.0" standalone="no"?>
<!DOCTYPE svg PUBLIC "-//W3C//DTD SVG 20010904//EN"
 "http://www.w3.org/TR/2001/REC-SVG-20010904/DTD/svg10.dtd">
<svg version="1.0" xmlns="http://www.w3.org/2000/svg"
 width="640.000000pt" height="1280.000000pt" viewBox="0 0 640.000000 1280.000000"
 preserveAspectRatio="xMidYMid meet">
<g transform="translate(0.000000,1280.000000) scale(0.100000,-0.100000)"
fill="#FFFFFF" stroke="none">
<path d="M3085 12788 c-22 -6 -76 -19 -120 -29 -86 -21 -216 -78 -293 -130
-68 -47 -187 -164 -237 -234 -52 -73 -96 -160 -125 -246 -53 -154 -50 81 -50
-4426 l0 -4192 -93 -62 c-401 -269 -677 -656 -792 -1110 -39 -151 -55 -287
-55 -461 0 -313 55 -555 190 -833 247 -507 726 -887 1277 -1010 107 -24 341
-55 413 -55 72 0 306 31 413 55 758 170 1344 805 1451 1574 20 140 20 393 1
528 -76 536 -378 1012 -830 1309 -49 32 -93 64 -97 69 -4 6 -8 237 -8 516 0
380 3 508 12 517 9 9 95 12 325 12 l313 0 0 110 0 110 -319 0 c-282 0 -320 2
-325 16 -3 9 -6 352 -6 763 0 568 3 750 12 759 9 9 95 12 325 12 l313 0 0 110
0 110 -313 0 c-230 0 -316 3 -325 12 -9 9 -12 191 -12 759 0 411 3 754 6 763
5 14 43 16 325 16 l319 0 0 110 0 110 -308 0 c-231 0 -312 3 -325 13 -16 11
-17 66 -15 772 l3 760 320 5 320 5 3 112 3 113 -323 2 -323 3 -5 950 -6 950
-22 74 c-78 254 -235 452 -456 576 -164 92 -430 145 -561 113z m259 -338 c254
-65 428 -261 466 -525 6 -46 10 -1553 10 -4330 l0 -4260 123 -73 c168 -100
246 -159 362 -277 119 -120 203 -236 279 -385 259 -506 225 -1096 -91 -1575
-228 -344 -582 -580 -1002 -667 -153 -32 -440 -32 -591 1 -326 70 -573 202
-800 430 -229 229 -362 473 -432 788 -30 134 -33 473 -5 603 67 319 207 586
420 802 105 107 199 180 355 273 l137 83 5 4303 c5 4105 6 4307 23 4364 101
336 419 528 741 445z"/>
<path d="M2845 7068 c-3 -7 -6 -886 -8 -1952 l-2 -1940 -95 -36 c-133 -50
-230 -103 -340 -186 -259 -195 -430 -463 -501 -784 -31 -138 -34 -398 -6 -530
58 -275 187 -510 381 -698 111 -107 196 -168 323 -233 311 -158 668 -188 1007
-83 390 122 726 451 856 842 41 125 61 230 67 367 20 429 -169 842 -502 1099
-137 106 -210 147 -365 206 l-95 36 -5 1950 -5 1949 -353 3 c-277 2 -354 0
-357 -10z"/>
</g>
</svg>
